<?xml version="1.0" encoding="utf-8"?>
<!-- Generator: Adobe Illustrator 25.0.1, SVG Export Plug-In . SVG Version: 6.00 Build 0)  -->
<svg version="1.1" id="Layer_1" xmlns="http://www.w3.org/2000/svg" xmlns:xlink="http://www.w3.org/1999/xlink" x="0px" y="0px"
	 viewBox="0 0 254.2 354.3" style="enable-background:new 0 0 254.2 354.3;" xml:space="preserve">
<style type="text/css">
	.st0{fill:#FFFFFF;}
</style>
<g id="logo" transform="translate(-457.091 -216)">
	<g id="Group_3" transform="translate(-32.489 133.87)">
		<path id="Path_57" class="st0" d="M575.1,418.6c0,0.2-0.1,0.3-0.3,0.3c-0.3,0-1.7-0.1-4.1-0.2c-0.1,2.7-0.1,4.6-0.1,5.6
			c0,1.3,0,3.1,0.1,5.7s0.1,4.4,0.1,5.7c0,0.2,0,0.3-0.1,0.4c-0.1,0-0.3,0.1-0.4,0.1c-0.8,0.1-1.6,0.1-2.4,0.1c-0.8,0-1.6,0-2.5-0.1
			c-0.2,0-0.4-0.3-0.4-0.5c0-1.3,0-3.1,0.1-5.7s0.1-4.4,0.1-5.7c0-0.8,0-2.7-0.1-5.6c-1.4,0.2-2.9,0.3-4.3,0.3c-0.2,0-0.2,0-0.2-0.2
			c0-0.4,0.1-0.8,0.2-1.2c0.2-0.8,0.2-1.2,0.2-1.4c0-0.5,0.1-1,0.1-1.5c0.1-0.8,0.2-1.2,0.3-1.2c0,0,0.1,0,0.2,0
			c2.1,0.3,4.3,0.4,6.5,0.3c0.8,0,2.3-0.1,4.5-0.3c1.2-0.1,1.8-0.2,1.8-0.2c0.2,0,0.3,0,0.3,0c0,0.1,0.1,0.2,0.1,0.3
			c0,0.3,0,0.7,0,1.2c0,0.6,0,1,0,1.2c0,0.4,0,0.8,0.1,1.2C575.1,417.9,575.1,418.2,575.1,418.6z"/>
		<path id="Path_58" class="st0" d="M599.9,435.8c0,0.2-0.1,0.4-0.3,0.4c-0.8,0.1-1.7,0.2-2.5,0.1c-0.8,0-1.7,0-2.5-0.1
			c-0.3-0.1-0.6-0.4-0.6-0.7c-0.1-0.9-0.3-1.7-0.7-2.5c-1.2-0.1-2.4-0.2-3.6-0.1c-0.8-0.1-1.6,0-2.5,0.1c-0.3,0.5-0.4,1.1-0.5,1.7
			c-0.2,0.9-0.4,1.4-0.6,1.4c-1,0.1-2.1,0.2-3.1,0.1c-1.4,0-2.1-0.1-2.1-0.5c0-0.3,1-3.7,3-10.2c2.2-7.1,3.4-11,3.6-11.7
			c0.1-0.4,0.2-0.6,0.4-0.6c0.2,0,0.6,0,1.1,0.1s0.9,0.1,1.1,0.1s0.6,0,1.1-0.1s0.8-0.1,1.1-0.1c0.2,0,0.3,0.2,0.5,0.5
			c0.4,1.1,1.7,5,3.9,11.5C598.8,432,599.9,435.5,599.9,435.8z M590.3,421.2c-0.2,0.5-0.5,1.5-1,3.1c-0.3,1-0.6,1.9-0.7,2.9
			c0,0.2,0.3,0.3,0.8,0.3c0.3,0,0.7,0,1.4,0c0.6,0,0.9-0.1,1-0.3c0-0.1,0-0.1,0-0.2c-0.1-1-0.3-2-0.6-2.9
			C591,423.1,590.7,422.2,590.3,421.2L590.3,421.2z"/>
		<path id="Path_59" class="st0" d="M622.9,436c0,0.1-0.1,0.1-0.3,0.2c-0.9,0.1-1.7,0.1-2.6,0.1c-0.8,0-1.6,0-2.4-0.1
			c-0.1,0-0.2,0-0.3-0.1c-0.1,0-0.1-0.1-0.2-0.3c-0.1-0.4-0.3-1-0.6-1.9c-0.3-1.1-0.9-2.6-1.7-4.7c-0.2-0.4-0.6-0.7-1.1-0.7
			c0.3,0-0.2,0-1.4,0c-0.1,0-0.2,0.3-0.2,0.8c0,0.7,0.1,1.8,0.2,3.2s0.2,2.5,0.2,3.2c0,0.2,0,0.3-0.1,0.3l-0.4,0
			c-0.5,0-1.4,0.1-2.5,0.1c-0.8,0-1.6,0-2.3-0.1c-0.2,0-0.4-0.3-0.4-0.5c0-1.2,0-2.9,0.1-5.3s0.1-4.1,0.1-5.3c0-4.5-0.1-8-0.2-10.5
			l0-0.2c0-0.2,0.1-0.3,0.4-0.4s1.7-0.1,4.1-0.2c1.7,0,3-0.1,4-0.1c1.8-0.1,3.6,0.5,5,1.6c1.5,1.4,2.3,3.3,2.2,5.4
			c0,1.3-0.1,2.5-0.6,3.7c-0.5,1.1-1.2,2-2.1,2.7c-0.2,0.1-0.3,0.3-0.3,0.5c0,0,0.5,1.3,1.7,4C622,433,622.5,434.5,622.9,436z
			 M617.2,421.7c0.1-1-0.3-2-1.1-2.7c-0.8-0.4-1.7-0.6-2.6-0.6c-0.9,0-1.3,0.2-1.4,0.5c0,0.4-0.1,1.4-0.1,3.1c0,0.2,0,0.6,0,1.1
			s0,0.8,0,1.1c0,0,0.1,0.1,0.4,0.2c0.6,0.1,1.2,0.1,1.7,0.1C616.3,424.4,617.2,423.5,617.2,421.7z"/>
		<path id="Path_60" class="st0" d="M647.8,435.8c0,0.2-0.1,0.4-0.3,0.4c-0.8,0.1-1.7,0.2-2.5,0.1c-0.8,0-1.7,0-2.5-0.1
			c-0.3-0.1-0.6-0.4-0.6-0.7c-0.1-0.9-0.3-1.7-0.7-2.5c-1.2-0.1-2.4-0.2-3.6-0.1c-0.8-0.1-1.6,0-2.5,0.1c-0.3,0.5-0.4,1.1-0.5,1.7
			c-0.2,0.9-0.4,1.4-0.6,1.4c-1,0.1-2.1,0.2-3.1,0.1c-1.4,0-2.1-0.1-2.1-0.5c0-0.3,1-3.7,3-10.2c2.2-7.1,3.4-11,3.6-11.7
			c0.1-0.4,0.2-0.6,0.4-0.6c0.2,0,0.6,0,1.1,0.1s0.9,0.1,1.1,0.1s0.6,0,1.1-0.1s0.8-0.1,1.1-0.1c0.2,0,0.3,0.2,0.5,0.5
			c0.4,1.1,1.7,5,3.9,11.5C646.7,432,647.8,435.5,647.8,435.8z M638.2,421.2c-0.2,0.5-0.5,1.5-1,3.1c-0.3,1-0.6,1.9-0.7,2.9
			c0,0.2,0.3,0.3,0.8,0.3c0.3,0,0.7,0,1.4,0c0.6,0,0.9-0.1,1-0.3c0-0.1,0-0.1,0-0.2c-0.1-1-0.3-2-0.6-2.9
			C638.9,423.1,638.6,422.2,638.2,421.2z"/>
		<path id="Path_61" class="st0" d="M668.7,418.9c0,0.1-0.1,0.2-0.3,0.2c-0.7,0-1.7-0.1-3.1-0.2s-2.4-0.2-3.1-0.2
			c-0.5,0-1,0-1.5,0.1c-0.3,0.2-0.5,0.7-0.5,1.5c0,1,0.2,1.6,0.7,1.7c0.3,0.1,0.6,0.1,0.8,0.1c0.6,0,1.5,0,2.8-0.1
			c1.2-0.1,2.2-0.1,2.8-0.1c0.3,0,0.5,0.9,0.5,2.8c0,1,0,1.9-0.2,2.9c0,0.2-0.2,0.3-0.4,0.3c-0.3-0.1-0.6-0.1-0.8-0.1
			c-1.5-0.1-2.9-0.2-4.4-0.2c-0.6,0-1,0-1.1,0c-0.5,0.1-0.7,0.3-0.7,0.7c0,1.5,0,3.3,0.2,5.2c0.1,1.8,0.1,2.6,0.1,2.4
			c0,0.3-0.3,0.4-0.8,0.5c-0.4,0-0.8,0-1.2,0c-1.1,0-2.2,0-3.3-0.2c-0.2,0-0.4-0.3-0.4-0.5c0-1.2,0-3,0.1-5.3s0.1-4.1,0.1-5.3
			c0-1.4-0.1-3.2-0.2-5.3c-0.2-3.3-0.2-5.1-0.2-5.3l0-0.2c0-0.3,0.1-0.4,0.4-0.4c0.7,0,1.7,0,3,0s2.4,0,3,0c0.7,0,1.8-0.1,3.2-0.2
			s2.5-0.2,3.2-0.2c0.4,0,0.7,0.2,0.8,0.6c0,0,0,0,0,0.1c0,0.5,0,1.1,0,2.1c0,0.2,0.1,0.7,0.2,1.4
			C668.6,418.1,668.7,418.5,668.7,418.9z"/>
	</g>
	<path id="Path_62" class="st0" d="M693.4,276.8c0,0-18.6-4.5-19.3,10.3c0,0-1.9,4.7,5.8,9.9c0,0-3.9,21-24.4,15.4
		c0,0-14.6-6.2-11.4-22.9c0.6,0.1,1.2,0.1,1.7,0.2c7.6,0,13.8-6.1,13.9-13.7c0-7.6-6.1-13.8-13.7-13.9c-7.6,0-13.8,6.1-13.9,13.7
		c0,3.8,1.5,7.5,4.3,10.1c-4.1,4.7-16.1,16.5-28.9,10.6c0,0-9.8,0-14.1-21c0,0,15.4,2.1,15.4-16.3c0,0-2.1-16.3-16.3-14.6
		c0,0,1.7-20.1-9.4-28.7c-5.3,8.5-8.2,18.3-8.6,28.3c0,0-15.4,0.4-15.8,15.4c0,0-3,15.8,16.3,16.3c0,0-5.1,23.6-21,24.4
		c-9.2-0.5-17.7-5.2-23.1-12.8c6.4-4,8.4-12.4,4.4-18.8c-4-6.4-12.4-8.4-18.8-4.4c-6.4,4-8.4,12.4-4.4,18.8c2.5,4,6.9,6.5,11.7,6.4
		c0.3,0,0.5-0.1,0.8-0.1c0.7,4.1,2.9,24.6-15.5,25.8c0,0-12,2.1-21-12c0,0,12.4-6.8,3-19.3c0,0-5.6-8.6-14.6-2.1
		c0,0-9-10.3-19.3-3.9l35.8,66.2c0,0,87.4-46.9,187-3.9l31.5-66.8C711.3,273.6,699.8,267.8,693.4,276.8z"/>
	<rect id="Rectangle_1" x="523.7" y="538.7" class="st0" width="114.4" height="2.8"/>
	<path id="Path_63" class="st0" d="M564.4,332.1l-14.8,14.8l15.1,15.1l14.8-14.8C579.5,347.2,564.4,330.2,564.4,332.1z"/>
	<path id="Path_64" class="st0" d="M650.1,336.5l-14.8,14.8l15.1,15.1l14.8-14.8C665.2,351.5,650.1,334.5,650.1,336.5z"/>
	<path id="Path_65" class="st0" d="M648.3,365.2l-14.8,14.8l15.1,15.1l14.8-14.8C663.4,380.3,648.3,363.2,648.3,365.2z"/>
	<path id="Path_66" class="st0" d="M658.9,406.5l10.1-9.8l10.1,9.8c0,0,2.9,11.7-0.5,34.3c-4.7,31.2-19.3,60-41.7,82.1
		c-1.9,1.9-3.8,3.7-5.7,5.3c-2.8,2.3-6.7,2.5-9.7,0.4c-4-2.8-9.5-7.1-12.5-10.9l-2.4-14.1l15.2-1l3.5,4.3
		C625.3,507,666,472.7,658.9,406.5z"/>
	<path id="Path_67" class="st0" d="M620.3,404.7l10.1-10.1l10,10.1c0,0,0.9,13.6-2.5,36.2c-4.7,31.2-19.3,60-41.7,82.1
		c-1.9,1.9-3.8,3.7-5.7,5.3c-2.8,2.3-6.7,2.5-9.7,0.4c-4-2.8-9.5-7.1-12.5-10.9l-1.3-13.6l14.6-1.7l3.8,4.7
		C585.3,507.1,627.4,470.9,620.3,404.7z"/>
	<path id="Path_68" class="st0" d="M599.7,406.7l-35.9-39.3l-30.8,39.2c0,0-2.4,52.7,25,86.3c-3.9,5.6-8.4,10.8-13.4,15.5
		c-37.2-32.4-38.3-101.5-38.3-101.5l-10.2-10.1l-10,10.1C482.3,481,528,519.7,528,519.7c3,3.8,8.5,8,12.5,10.8
		c2.9,2.1,6.9,1.9,9.7-0.4c1.9-1.6,3.8-3.4,5.7-5.3c22.4-22.2,37-51,41.7-82.2C601,420.1,599.7,406.7,599.7,406.7z M567.6,472.2
		c-18.6-24.4-13.1-65.4-13.1-65.4l12.5-13l12.4,12.8C583.9,441.3,567.6,472.2,567.6,472.2z"/>
</g>
</svg>
